<?xml version="1.0" standalone="no"?>
<!DOCTYPE svg PUBLIC "-//W3C//DTD SVG 20010904//EN"
 "http://www.w3.org/TR/2001/REC-SVG-20010904/DTD/svg10.dtd">
<svg version="1.0" xmlns="http://www.w3.org/2000/svg"
 width="125.000000pt" height="125.000000pt" viewBox="0 0 125.000000 125.000000"
 preserveAspectRatio="xMidYMid meet">
<metadata>
Created by potrace 1.11, written by Peter Selinger 2001-2013
</metadata>
<g transform="translate(0.000000,125.000000) scale(0.100000,-0.100000)"
fill="#000000" stroke="none">
<path d="M455 1239 c-109 -15 -238 -68 -328 -134 -54 -40 -65 -59 -47 -80 10
-13 18 -10 54 19 259 212 631 197 864 -35 106 -106 168 -228 188 -374 29 -206
-46 -413 -204 -560 -42 -40 -43 -41 -24 -58 18 -16 21 -15 73 36 67 64 111
127 149 210 44 97 57 162 58 287 1 101 -3 126 -28 205 -47 144 -122 253 -238
343 -146 114 -338 166 -517 141z"/>
<path d="M467 1114 c-1 -1 -19 -5 -40 -8 -106 -17 -294 -131 -272 -165 10 -17
24 -13 53 14 30 28 150 94 185 101 88 19 120 22 183 20 177 -8 344 -112 433
-270 116 -205 72 -486 -100 -641 -24 -22 -38 -42 -35 -51 10 -25 30 -15 88 46
134 141 187 360 132 549 -71 246 -313 420 -571 410 -29 -1 -54 -3 -56 -5z"/>
<path d="M465 1008 c-58 -11 -178 -67 -218 -103 -20 -18 -26 -29 -19 -40 7
-13 12 -12 38 10 81 71 180 105 291 101 96 -4 123 -10 182 -40 258 -132 318
-474 119 -680 -30 -31 -51 -61 -47 -67 19 -31 119 80 164 181 26 57 30 78 31
169 1 57 -2 115 -8 130 -22 57 -53 126 -58 131 -3 3 -18 22 -33 43 -92 123
-279 193 -442 165z"/>
<path d="M431 903 c-52 -17 -108 -52 -135 -82 -27 -30 -11 -39 22 -13 147 117
345 110 472 -18 109 -109 132 -264 58 -401 -17 -33 -46 -73 -65 -89 -18 -16
-33 -34 -33 -40 0 -41 92 50 133 132 54 107 43 253 -26 362 -37 58 -128 128
-195 150 -59 19 -174 18 -231 -1z"/>
<path d="M492 754 c-59 -17 -106 -56 -131 -108 -87 -178 97 -363 276 -279 161
75 154 309 -10 378 -52 22 -86 24 -135 9z m122 -70 c44 -21 80 -84 78 -137 -6
-144 -201 -192 -271 -66 -71 126 61 265 193 203z"/>
<path d="M474 658 c-29 -22 -46 -44 -51 -63 -1 -5 -4 -19 -7 -31 -6 -30 28
-99 59 -120 33 -22 106 -22 139 0 54 35 73 101 46 165 -27 66 -129 93 -186 49z
m126 -18 c53 -28 62 -116 16 -159 -56 -53 -145 -29 -165 45 -25 90 65 159 149
114z"/>
<path d="M495 614 c-49 -45 -31 -123 32 -139 58 -14 108 36 96 98 -11 58 -84
82 -128 41z"/>
</g>
</svg>
