<?xml version="1.0" standalone="no"?>
<!DOCTYPE svg PUBLIC "-//W3C//DTD SVG 20010904//EN"
 "http://www.w3.org/TR/2001/REC-SVG-20010904/DTD/svg10.dtd">
<svg version="1.0" xmlns="http://www.w3.org/2000/svg"
 width="260.000000pt" height="260.000000pt" viewBox="0 0 260.000000 260.000000"
 preserveAspectRatio="xMidYMid meet">
<metadata>
Created by potrace 1.11, written by Peter Selinger 2001-2013
</metadata>
<g transform="translate(0.000000,260.000000) scale(0.100000,-0.100000)"
fill="#000000" stroke="none">
<path d="M0 1300 l0 -1300 1300 0 1300 0 0 1300 0 1300 -1300 0 -1300 0 0
-1300z m904 1204 c31 -5 36 -10 36 -35 0 -34 -10 -37 -28 -9 -20 32 -74 27
-111 -11 -37 -36 -36 -26 -32 -419 2 -158 7 -270 13 -277 6 -7 24 -13 39 -13
23 0 32 -6 40 -26 33 -87 -137 -123 -254 -54 -31 18 -37 28 -35 49 3 22 9 27
38 29 50 5 88 44 96 101 4 25 13 56 21 68 11 17 15 78 18 280 3 248 4 258 24
272 12 7 21 19 21 26 0 15 48 36 67 30 6 -2 28 -7 47 -11z m624 -5 c15 -6 22
-17 22 -34 0 -30 -11 -32 -28 -5 -22 37 -100 22 -114 -22 -2 -6 -9 -8 -15 -5
-17 11 3 60 30 74 22 11 62 8 105 -8z m610 6 c44 -14 52 -19 52 -40 0 -28 -15
-33 -28 -10 -11 20 -70 29 -104 16 -20 -8 -29 -19 -34 -48 -11 -63 -23 -73
-24 -20 0 60 13 85 53 102 18 8 32 14 33 15 0 0 24 -7 52 -15z m-761 -278 c2
-105 3 -250 2 -320 -1 -110 1 -131 17 -148 9 -10 26 -19 36 -19 10 0 41 -21
68 -46 l50 -47 0 -69 c0 -46 -6 -83 -19 -111 -10 -23 -22 -62 -26 -87 -4 -25
-13 -57 -21 -71 -7 -14 -17 -54 -22 -90 -6 -35 -18 -84 -27 -109 -15 -38 -18
-88 -20 -320 -2 -233 -5 -280 -18 -305 -9 -16 -17 -37 -17 -45 0 -8 -9 -33
-21 -55 -12 -21 -25 -68 -30 -104 -5 -36 -11 -72 -14 -78 -7 -21 -45 -15 -56
9 -5 13 -16 34 -24 48 -8 14 -15 35 -15 46 0 12 -7 41 -16 65 -9 24 -20 88
-25 142 -4 54 -17 126 -28 160 -42 128 -53 201 -61 412 -5 116 -16 245 -24
288 -24 121 -21 190 12 254 17 34 38 61 57 70 16 9 35 22 43 29 7 8 29 14 48
14 49 0 71 15 80 52 3 18 15 49 25 68 17 31 19 59 19 271 0 222 5 307 18 294
3 -3 7 -92 9 -198z m594 10 c-8 -8 -11 1 -11 29 0 53 14 67 18 19 2 -21 -1
-42 -7 -48z m47 -281 c-6 -184 0 -211 46 -219 18 -3 44 -16 58 -29 37 -34 71
-106 65 -137 -8 -37 -27 -109 -44 -161 -8 -25 -21 -72 -28 -105 -8 -33 -21
-78 -29 -100 -8 -22 -15 -56 -16 -75 0 -20 -8 -63 -17 -95 -13 -48 -17 -109
-18 -306 -2 -224 -4 -249 -22 -290 -35 -74 -62 -152 -68 -194 -3 -22 -8 -51
-11 -64 l-5 -24 -30 29 c-16 15 -29 33 -29 39 0 6 -9 29 -20 50 -13 24 -26 83
-35 150 -15 120 -49 285 -64 312 -16 31 -31 159 -31 266 0 57 -7 150 -16 208
-9 57 -17 173 -18 260 l-1 155 29 34 c40 49 97 80 144 80 33 0 40 6 70 48 24
34 39 112 49 252 2 41 10 81 16 88 23 28 30 -21 25 -172z m-1497 -392 c7 -9
37 -28 66 -41 72 -34 71 -31 37 -213 -23 -124 -33 -333 -24 -493 6 -100 5
-159 -2 -185 l-11 -37 -10 35 c-5 19 -19 64 -30 100 -15 51 -21 111 -28 275
-4 116 -15 246 -23 290 -8 44 -15 119 -16 167 0 114 10 139 41 102z"/>
</g>
</svg>
