<?xml version="1.0" standalone="no"?>
<!DOCTYPE svg PUBLIC "-//W3C//DTD SVG 1.1//EN" "http://www.w3.org/Graphics/SVG/1.1/DTD/svg11.dtd">
<svg width="100%" height="100%" viewBox="0 0 71 71" version="1.1" xmlns="http://www.w3.org/2000/svg" xmlns:xlink="http://www.w3.org/1999/xlink" xml:space="preserve" style="fill-rule:evenodd;clip-rule:evenodd;stroke-linejoin:round;stroke-miterlimit:1.41421;">
    <g transform="matrix(1.97079,0,0,1.97079,-34.4097,-34.3903)">
        <path d="M35.48,28.37C31.48,28.37 28.24,31.49 28.24,35.37C28.24,39.23 31.47,42.37 35.48,42.37C39.46,42.37 42.68,39.23 42.68,35.37C42.68,31.49 39.45,28.37 35.48,28.37M49.34,32.67L46.2,32.67C46.48,33.64 46.66,34.67 46.66,35.75C46.66,41.73 41.63,46.58 35.48,46.58C29.28,46.58 24.28,41.73 24.28,35.75C24.28,34.68 24.44,33.65 24.76,32.67L21.44,32.67L21.44,47.85C21.44,48.65 22.09,49.29 22.87,49.29L47.92,49.29C48.72,49.29 49.34,48.63 49.34,47.84L49.34,32.67L49.34,32.67ZM43.66,21.45C42.76,21.45 42.03,22.2 42.03,23.07L42.03,26.95C42.03,27.85 42.77,28.57 43.66,28.57L47.71,28.57C48.61,28.57 49.34,27.84 49.34,26.95L49.34,23.07C49.34,22.2 48.61,21.45 47.72,21.45L43.68,21.45L43.66,21.45ZM22.06,17.45L48.81,17.45C51.36,17.45 53.41,19.53 53.41,22.08L53.41,48.8C53.41,51.34 51.36,53.4 48.81,53.4L22.08,53.4C19.54,53.4 17.48,51.34 17.48,48.8L17.48,22.1C17.48,19.56 19.54,17.47 22.08,17.47" style="fill:white;fill-rule:nonzero;"/>
    </g>
</svg>
