<?xml version="1.0" standalone="no"?>
<!DOCTYPE svg PUBLIC "-//W3C//DTD SVG 1.1//EN" "http://www.w3.org/Graphics/SVG/1.1/DTD/svg11.dtd">
<svg width="100%" height="100%" viewBox="0 0 30 30" version="1.1" xmlns="http://www.w3.org/2000/svg" xmlns:xlink="http://www.w3.org/1999/xlink" xml:space="preserve" style="fill-rule:evenodd;clip-rule:evenodd;stroke-linejoin:round;stroke-miterlimit:1.41421;">
    <g transform="matrix(0.107782,0,0,0.107782,0.533556,3.11428)">
        <path d="M85.979,223C54.304,223 24.822,213.715 0,197.801C4.387,198.319 8.852,198.584 13.379,198.584C39.658,198.584 63.842,189.617 83.039,174.574C58.495,174.121 37.781,157.905 30.643,135.621C34.068,136.276 37.582,136.627 41.196,136.627C46.311,136.627 51.266,135.942 55.973,134.66C30.314,129.509 10.98,106.838 10.98,79.662C10.98,79.426 10.981,79.192 10.985,78.957C18.547,83.158 27.196,85.682 36.39,85.973C21.34,75.914 11.438,58.746 11.438,39.287C11.438,29.008 14.204,19.373 19.032,11.089C46.696,45.024 88.025,67.354 134.641,69.693C133.685,65.587 133.188,61.307 133.188,56.91C133.188,25.936 158.302,0.822 189.279,0.822C205.411,0.822 219.988,7.634 230.22,18.535C242.996,16.02 255,11.352 265.837,4.924C261.648,18.022 252.756,29.014 241.175,35.955C252.521,34.6 263.331,31.584 273.39,27.123C265.87,38.371 256.359,48.25 245.402,56.158C245.51,58.564 245.564,60.983 245.564,63.414C245.564,137.533 189.148,223 85.979,223Z" style="fill:white;fill-rule:nonzero;"/>
    </g>
</svg>
